<svg xmlns="http://www.w3.org/2000/svg" xmlns:xlink="http://www.w3.org/1999/xlink" width="1024" height="1024" version="1.1" viewBox="0 0 1024 1024"><desc>SuperCollider Cube SVG - Nathan Ho 2015</desc><defs><linearGradient id="wbase" gradientUnits="userSpaceOnUse"><stop offset="0%" stop-color="#000"/><stop offset="100%" stop-color="#FFF"/></linearGradient><linearGradient id="w0" x1="50%" x2="50%" y1="100%" y2="0%" xlink:href="#wbase"/><linearGradient id="w1" x1="100%" x2="0%" y1="50%" y2="50%" xlink:href="#wbase"/><linearGradient id="w2" x1="50%" x2="50%" y1="0%" y2="100%" xlink:href="#wbase"/><linearGradient id="w3" x1="0%" x2="100%" y1="50%" y2="50%" xlink:href="#wbase"/><linearGradient id="ebase" gradientUnits="userSpaceOnUse"><stop offset="0%" stop-color="#000"/><stop offset="100%" stop-color="#A7A7A7"/></linearGradient><linearGradient id="e0" x1="50%" x2="50%" y1="100%" y2="0%" xlink:href="#ebase"/><linearGradient id="e1" x1="100%" x2="0%" y1="50%" y2="50%" xlink:href="#ebase"/><linearGradient id="e2" x1="50%" x2="50%" y1="0%" y2="100%" xlink:href="#ebase"/><linearGradient id="e3" x1="0%" x2="100%" y1="50%" y2="50%" xlink:href="#ebase"/><linearGradient id="nbase" gradientUnits="userSpaceOnUse"><stop offset="0%" stop-color="#4F4F4F"/><stop offset="100%" stop-color="#FFF"/></linearGradient><linearGradient id="n0" x1="50%" x2="50%" y1="100%" y2="0%" xlink:href="#nbase"/><linearGradient id="n1" x1="100%" x2="0%" y1="50%" y2="50%" xlink:href="#nbase"/><linearGradient id="n2" x1="50%" x2="50%" y1="0%" y2="100%" xlink:href="#nbase"/><linearGradient id="n3" x1="0%" x2="100%" y1="50%" y2="50%" xlink:href="#nbase"/><g id="wface"><rect width="1024" height="1024" x="0" y="0" fill="url(#w0)"/><rect width="896" height="896" x="64" y="64" fill="url(#w1)"/><rect width="768" height="768" x="128" y="128" fill="url(#w2)"/><rect width="640" height="640" x="192" y="192" fill="url(#w3)"/><rect width="512" height="512" x="256" y="256" fill="url(#w0)"/><rect width="384" height="384" x="320" y="320" fill="url(#w1)"/><rect width="256" height="256" x="384" y="384" fill="url(#w2)"/><rect width="128" height="128" x="448" y="448" fill="url(#w3)"/></g><g id="eface"><rect width="1024" height="1024" x="0" y="0" fill="url(#e0)"/><rect width="896" height="896" x="64" y="64" fill="url(#e1)"/><rect width="768" height="768" x="128" y="128" fill="url(#e2)"/><rect width="640" height="640" x="192" y="192" fill="url(#e3)"/><rect width="512" height="512" x="256" y="256" fill="url(#e0)"/><rect width="384" height="384" x="320" y="320" fill="url(#e1)"/><rect width="256" height="256" x="384" y="384" fill="url(#e2)"/><rect width="128" height="128" x="448" y="448" fill="url(#e3)"/></g><g id="nface"><rect width="1024" height="1024" x="0" y="0" fill="url(#n0)"/><rect width="896" height="896" x="64" y="64" fill="url(#n1)"/><rect width="768" height="768" x="128" y="128" fill="url(#n2)"/><rect width="640" height="640" x="192" y="192" fill="url(#n3)"/><rect width="512" height="512" x="256" y="256" fill="url(#n0)"/><rect width="384" height="384" x="320" y="320" fill="url(#n1)"/><rect width="256" height="256" x="384" y="384" fill="url(#n2)"/><rect width="128" height="128" x="448" y="448" fill="url(#n3)"/></g><filter id="shadow"><feGaussianBlur in="SourceAlpha" stdDeviation="12"/></filter></defs><g filter="url(#shadow)" opacity=".5" transform="translate(0,650)"><use transform="matrix(0.4140625 0.2021484375 -0.494140625 0.1162109375 554.0 26.0)" xlink:href="#nface"/></g><use transform="matrix(0.494140625 -0.1162109375 0.0 0.5810546875 472.0 352.0)" xlink:href="#eface"/><use transform="matrix(0.4140625 0.2021484375 0.0 0.5810546875 48.0 145.0)" xlink:href="#wface"/><use transform="matrix(0.4140625 0.2021484375 -0.494140625 0.1162109375 554.0 26.0)" xlink:href="#nface"/></svg>